{"title":"Kickboxer-720p MP4 AAC x264 BRRip 1989-CC","uid":7171855,"size":2016884066,"categoryP":"video","categoryS":"hd___movies","magnet":"?xt=urn:btih:2ec22ac320046300c17785fa27cbe45583295b09&amp;dn=Kickboxer-720p+MP4+AAC+x264+BRRip+1989-CC&amp;tr=udp%3A%2F%2Ftracker.openbittorrent.com%3A80&amp;tr=udp%3A%2F%2Fopen.demonii.com%3A1337&amp;tr=udp%3A%2F%2Ftracker.coppersurfer.tk%3A6969&amp;tr=udp%3A%2F%2Fexodus.desync.com%3A6969","seeders":0,"leechers":2,"uploader":"Caveman44","files":-1,"time":1333990575,"description":"Source: Kickboxer.Uncut.1989.720p.BluRay.DTS5.1.x264-iwok\n\nSubs: Arabic, Brazilian, Danish, Dutch, English, Farsi-Persian, Polish, Romanian, Servian, Spanish, Swedish, Turkish and Vietnamese.\n\nSample and Screens included.\n\nGeneral\nComplete name                    : Kickboxer-720p MP4 AAC x264 BRRip 1989-CC.mp4\nFormat                           : MPEG-4\nFormat profile                   : Base Media\nCodec ID                         : isom\nFile size                        : 1.85 GiB\nDuration                         : 1h 37mn\nOverall bit rate                 : 2 721 Kbps\nEncoded date                     : UTC 2012-04-08 08:12:32\n\n\nVideo\nID                               : 1\nFormat                           : AVC\nFormat/Info                      : Advanced Video Codec\nFormat profile                   : &lt;a class=&quot;__cf_email__&quot; href=&quot;/cdn-cgi/l/email-protection&quot; data-cfemail=&quot;3f775658577f730c110e&quot;&gt;[email&amp;#160;protected]&lt;/a&gt;&lt;script cf-hash='f9e31' type=&quot;text/javascript&quot;&gt;\n/* &lt;![CDATA[ */!function(){try{var t=&quot;currentScript&quot;in document?document.currentScript:function(){for(var t=document.getElementsByTagName(&quot;script&quot;),e=t.length;e--;)if(t[e].getAttribute(&quot;cf-hash&quot;))return t[e]}();if(t&amp;&amp;t.previousSibling){var e,r,n,i,c=t.previousSibling,a=c.getAttribute(&quot;data-cfemail&quot;);if(a){for(e=&quot;&quot;,r=parseInt(a.substr(0,2),16),n=2;a.length-n;n+=2)i=parseInt(a.substr(n,2),16)^r,e+=String.fromCharCode(i);e=document.createTextNode(e),c.parentNode.replaceChild(e,c)}}}catch(u){}}();/* ]]&gt; */&lt;/script&gt;\nFormat settings, CABAC           : Yes\nFormat settings, ReFrames        : 5 frames\nCodec ID                         : avc1\nCodec ID/Info                    : Advanced Video Coding\nDuration                         : 1h 37mn\nBit rate mode                    : Variable\nBit rate                         : 2 332 Kbps\nNominal bit rate                 : 2 379 Kbps\nMaximum bit rate                 : 19.7 Mbps\nWidth                            : 1 280 pixels\nHeight                           : 688 pixels\nDisplay aspect ratio             : 1.860\nFrame rate mode                  : Variable\nFrame rate                       : 23.976 fps\nMinimum frame rate               : 19.048 fps\nMaximum frame rate               : 24.390 fps\nResolution                       : 24 bits\nColorimetry                      : 4:2:0\nScan type                        : Progressive\nBits/(Pixel*Frame)               : 0.110\nStream size                      : 1.59 GiB (86%)\nWriting library                  : x264 core 112\n\nAudio\nID                               : 2\nFormat                           : AAC\nFormat/Info                      : Advanced Audio Codec\nFormat version                   : Version 4\nFormat profile                   : LC\nFormat settings, SBR             : No\nCodec ID                         : 40\nDuration                         : 1h 37mn\nBit rate mode                    : Variable\nBit rate                         : 384 Kbps\nMaximum bit rate                 : 577 Kbps\nChannel(s)                       : 6 channels\nChannel positions                : Front: L C R, Rear: L R, LFE\nSampling rate                    : 48.0 KHz\nResolution                       : 16 bits\nStream size                      : 268 MiB (14%)\nLanguage                         : English\n","torrent":{"xt":"urn:btih:2ec22ac320046300c17785fa27cbe45583295b09","amp;dn":"Kickboxer-720p+MP4+AAC+x264+BRRip+1989-CC","amp;tr":["udp%3A%2F%2Ftracker.openbittorrent.com%3A80","udp%3A%2F%2Fopen.demonii.com%3A1337","udp%3A%2F%2Ftracker.coppersurfer.tk%3A6969","udp%3A%2F%2Fexodus.desync.com%3A6969"],"infoHash":"2ec22ac320046300c17785fa27cbe45583295b09","infoHashBuffer":{"type":"Buffer","data":[46,194,42,195,32,4,99,0,193,119,133,250,39,203,228,85,131,41,91,9]},"announce":[],"urlList":[]}}